<?xml version="1.0" encoding="UTF-8"?>
<svg id="_レイヤー_1" xmlns="http://www.w3.org/2000/svg" version="1.1" viewBox="0 0 71.3 71.3">
  <!-- Generator: Adobe Illustrator 30.3.0, SVG Export Plug-In . SVG Version: 2.1.3 Build 182)  -->
  <defs>
    <style>
      .st0 {
        fill: #3e1485;
      }
    </style>
  </defs>
  <path class="st0" d="M12.5,49.6c-.9-1.3-2.3-1.8-3.2-1.8s-2.1,1.4-1.7,3.2c1.3-.2,3.8-1,4.9-1.4"/>
  <path class="st0" d="M38.8,4.2c-1,.2-2.1.5-2.9.8-.8,0-1.4-.9-2.9-.9s-1.2.2-1.2.6,1.2.9,2.8.7l.2.2c-1.2,1.2-.9,2.8.3,2.8s1.3-1.3,1-2c-.2-.5-.2-.9.1-1.1.5-.2,1.3-.4,2-.6,0,.1-.2.3-.2.5,1.8-.4,3.6-.8,5.7-.9-1.4-.7-3.8-.8-5,0"/>
  <path class="st0" d="M44.2,5.8c-.3.6-.2,1.7,1.1,2.3.4-1,.9-2.2,1.4-3-.2,0-1.9-.4-2.5.7"/>
  <path class="st0" d="M10.6,53.3c1.4,0,2.7-1,2.2-3-.8.3-3.5,1.2-4.9,1.4.4.9,1.6,1.6,2.7,1.6"/>
  <path class="st0" d="M48.6,7.7c.4-.7.3-1.8-1.2-2.4-.5,1.1-.9,2.1-1.3,3.1.6.2,1.9.3,2.5-.8"/>
  <path class="st0" d="M41.9,6.6c1.6-.2,2.3-1.5,2.2-1.9-2.3.2-4.1.6-5.9,1,.7.6,2,1,3.6.9"/>
  <path class="st0" d="M60.2,18.3c-1.6,2.2-3.4,4.4-5.3,6.5,2.5.9,4.7.5,5.7-1.3,1.2-2.2.2-4.2-.5-5.2"/>
  <path class="st0" d="M61.8,15.3c.2-.5.5-3.1-2.5-6.1-1-.9-2.2-1.5-2.8-1.5,0,0,3,1.9,5.4,7.7"/>
  <path class="st0" d="M60.9,15.5c-1.4-3.3-3.3-5.9-5.4-7.7-.6.2-.3,3.5,5.4,7.7"/>
  <path class="st0" d="M26.2,6c1,2.2,2,4.2,3,6.3,1.2-.6,2.7-3.3,1.7-4.9-1.4-2.4-4.7-1.4-4.7-1.4"/>
  <path class="st0" d="M46.6,10.1c1.2.3,5.7,1.2,10.4,3.7-1.1-2-2.2-3-3.8-3.8-4.4-2.1-6.5.1-6.5.1"/>
  <path class="st0" d="M23.6,10.3c.7,2.2,3.1,2.6,4.7,2.3-1-2-2-4-3-6.3-.9.6-2.3,2.3-1.7,4"/>
  <path class="st0" d="M54,23.9c1.7-2,3.6-4.1,5.3-6.4-.4-.3-2.8-1.4-4.5-.2-2.1,1.5-2.2,4.5-.8,6.6"/>
  <path class="st0" d="M61.7,54c1.7-3.8,1.1-6.4,0-8-.6,2-2.3,8.2-6.2,13.9,1.5,0,4.6-2.2,6.3-5.9"/>
  <path class="st0" d="M51.4,56.8c-2.5-2.8-7.7-2.3-9.5-.8,3,2.3,6.3,4.4,9.8,6.5.6-.8,1.5-3.7-.3-5.7"/>
  <path class="st0" d="M43.2,64c2.2,1.2,6,.7,7.7-.7-3.3-2.1-6.8-4-9.8-6.4-1,1.7-1.1,5.3,2.1,7"/>
  <path class="st0" d="M57.6,15c5.8,2.9,12.1,11.3,12.1,20.3s0,1.7,0,2.1h.4c1.2-9.3-4.9-19-12.4-23.2,0,0,0,.7,0,.7Z"/>
  <path class="st0" d="M60.1,35.6c-2.4,0-3.3,3.4-3,6.9h-.3c-.5-1.6-1.4-3.9-2.3-5.3,0-.7.2-1.2.7-2,.3-.5,2.1-2.8,2.1-4.6s-.9-2.7-2.5-2.7-2.7,1.4-2.7,3,.6,2.6,1.2,3.7l-.3.2c-1.2-1.8-2.4-3.1-3.5-4.3-.7-1.5,1.1-3.6,1.1-5.8s-3-3.4-4.4-1.4c-.9,1.4,0,3.8,1.3,5l-.2.2c-1-.8-2.7-2.1-3.7-2.7-.8-1.3.3-3.4-.2-4.9-.3-1-1.1-1.4-1.9-1.4s-2,.7-2,2,.8,2.1,2.3,3.1v.3c-.9-.3-3.1-1.3-3.8-1.5-1-1.1.2-4.9-2.5-4.9s-1.7.7-1.7,1.8.9,2,2.6,2.6v.2c-.5-.1-2.1-.5-3.3-.7-1.7-1.1-1-3.7-3.2-3.7s-1.5.8-1.5,1.5c0,1.1.8,1.9,3,2.2v.3c-2,.1-3.2,1.1-3.2,2.4s.7,1.4,1.4,1.4c2,0,2.3-3.2,3.4-3.6.5,0,2.5.5,3.2.7,0,0,0,.2,0,.2-2.3-.2-3.8.7-3.8,2.2s.7,1.6,1.6,1.6c1.9,0,2.1-3.1,4-3.5.5.2,3,1.2,3.5,1.4v.3c-2.7-1-4.8.2-4.8,1.8s1.1,2.1,2.4,1.7c1.7-.5,2.7-2.5,4.4-2.7.6.3,3,2.1,3.4,2.5v.2c-1.2-.5-3.8-1.4-5-.4-1.8,1.6-.6,4.4,1.9,4,1.9-.2,3.1-2.4,5.1-1.9,1.1,1,2.5,2.7,3.4,4.2l-.2.2c-1.1-.9-2.3-2.4-4.4-2.4s-2.7.9-2.7,2.6,1.4,2.4,3,2.4c1.5,0,2.6-.5,3.4-.6,1,0,1.7,0,2.3.4.6.8,1.8,3.8,2.1,5h-.3c-1.3-2.2-2.5-3.4-4.5-3.4s-2.8,1-2.8,2.6c0,3.1,4.5,3.3,6.1,3.4,1,0,1.9.2,2.2.7.1.7.2,1.3.2,1.9-1,1-1.7,1.8-2.3,3.2-1.7,3.6-1.1,7.2,0,8.4,3.9-5.7,5.6-11.8,6.1-13.8-.8,0-2,.7-3.1,1.6,0-.6,0-1.1-.1-1.6.2-.9,1.1-1.8,2.7-3.2,1.6-1.5,2.4-3,2.4-4.3s-1.1-2.5-2.4-2.5"/>
  <path class="st0" d="M34.9,65.1c.6,0,1.1-.5,1.1-1.1,0-1.4-2.7-1.3-3.4-1.2v-.3c.9-.2,2-.7,2-1.7s-.4-1-1.1-1c-1.5,0-1.1,2.3-1.9,2.9-.7.1-2.4.1-3,.2v-.2c.9-.2,2.2-.6,2.2-1.7s-.4-1-1.2-1c-1.8,0-1.7,2.4-2.5,3-.9,0-2.2-.2-3.1-.2v-.3c1.7,0,2.7-.7,2.7-1.6s-.6-1.3-1.5-1.3-1.5.7-1.8,1.4c-.5,1.3-1,1.4-1.2,1.4-.8-.2-2.4-.6-3.2-1v-.3c1.7.4,3.7.1,3.7-1.4s-.5-1.4-1.6-1.4c-1.8,0-2.2,2.4-3.5,2.4-1.6-.6-2.8-1.3-3.7-1.9-.3-.8-.7-1.6-1.3-2.4-.9-1.1-2.2-2.1-3.3-2.5,0,0,2.5,4.6,5,7,0-.3,0-.9-.2-1.5,1,.6,2.1,1.3,3.5,1.9.8.7.4,4.1,2.5,4.1s1-.5,1-1.1-.9-1.6-2.4-2.3v-.3c1,.3,2.3.8,3.5,1,1.2.6,1,3.9,3.4,3.9s1.1-.6,1.1-1.1c0-1.2-1.6-1.8-2.8-2.3v-.2c.8,0,2.5.3,3.2.3,1.4.5,1.5,2.9,3.2,2.9s1.2-.6,1.2-1.1c0-.7-.6-1.3-3-1.8v-.2c.7,0,2.5,0,3-.1,1,.1,1.7,2,3.2,2"/>
  <path class="st0" d="M5.6,32.1c1.2,0,2.1-1.5,2.4-2.4-.4,0-2.5-.4-4.2-.1,0,.9.5,2.5,1.8,2.5"/>
  <path class="st0" d="M13.5,13.9c0-.8-.7-.9-1-.9-.5,0-1.1.2-1.4.5.5,1,1.1,1.8,1.7,2.6.5-.7.7-1.6.7-2.2"/>
  <path class="st0" d="M9.1,21.6c.2.4.7.8,1.4.8,1.2,0,2.5-.9,3.5-3.6h.3c-.3,1.3-.6,2.3-.8,4.1-.2.6-.6.8-1.3,1.1-2.2,1-3.1,2.4-3.1,3.6s.3,1.4,1,1.7c1.7.6,2.8-1.7,3.1-3.5h.3c0,1.3,0,2.4,0,3.7-.2.8-.5,1.1-1.4,2-.9.8-1.8,1.9-1.8,2.9s.8,1.8,1.6,1.8c1.3,0,1.9-1.7,2-3.8h.3c.2,1,.7,2.4,1.1,3.1.1,1.2-2.4,1.8-2.4,3.9s.7,1.6,1.4,1.6c1.5,0,1.9-1.6,1.7-3.6h.2c.4.8,1.1,2.1,1.4,2.6,0,.7-1.3,2-1.3,3.3s.4,1.5,1.4,1.5c1.4,0,2.3-1.6.4-4.1l.3-.2c.5.6,1.3,1.5,2.4,1.5s1.5-.8,1.5-1.4c0-1-.9-1.4-1.5-1.4-1.2,0-1.5.7-2.9.5-.5-.6-1.1-2-1.4-2.6h.2c.5.5,1.7,1.3,2.5,1.3s1.5-.8,1.5-1.5c0-1.1-1-1.6-2-1.6s-2.3.5-3,0c-.4-.6-.9-2.5-1-3h.2c.7,1.3,1.7,1.9,2.8,1.9s1.5-.9,1.5-1.7-.7-1.8-2.7-2.1c-1-.1-2-.2-2.4-.8-.2-1.1-.2-2.6-.1-3.6h.3c.2.9.9,2.8,2.7,2.8s2.5-1.8,1.3-3.3c-1.2-1.5-3.8-1.4-4.2-2.7.1-1.5.4-2.7.7-3.8h.3c0,1.7.8,3.4,2.5,3.4s2.8-2.1,1.1-3.6c-1.2-1.1-2.9-1.4-3.2-2.2,0-.3.3-.9.4-1.3,1.7-.2,3.3-1.2,4.8-2.7,2-2.2,1.8-4.2,1.5-4.7-2.9,2.1-5.8,5.3-7.4,7.5.1,0,.3,0,.4,0-.2.4-.3.8-.5,1.2-.7.7-1.9,1-3.1,1.5-1.8.7-3.3,2.1-2.7,3.5"/>
  <path class="st0" d="M8.1,28.9c.1-.9-.2-2.3-1.7-2.5-1.4-.1-2.2,1.4-2.6,2.5,1.4-.3,3.4,0,4.2,0"/>
  <path class="st0" d="M8.4,42.5c.2.5-.4,1.7-.4,2.7s.4,1.4,1,1.4c1,0,1.2-1.7,0-3.2v-.2c.5.3,1.4,1,2,1.4.3.5,0,1.3.2,2.2.3.9.8,1.1,1.2,1.1.6,0,.9-.5.9-1,0-.8-.8-1.6-1.4-2v-.2c1.9.7,2.6-.3,2.6-.9s-.4-.8-.9-.8-.6,0-.9.4c-.5.5-.9.9-1.6.9-.6-.3-1.3-.8-1.8-1.3v-.2c1.6.8,2.8.3,2.8-.7s-1-1.6-1.9-.8c-.6.6-1.3.9-1.7.8-.5-.5-1.3-1.5-1.7-2.3h.1c1.1,1.6,3.1,1.1,3.1-.4s-.9-1.6-2.3-.9c-.6.3-1.2.4-1.5.2-.2-.2-.6-1-.9-1.7,0,0,0,0,0-.2.1-2-.6-4.6-1.8-5,.1,2.9.9,5.9,1.1,7.3.2-.3.4-.8.5-1.4.2.5.6,1.1.7,1.4,0,.4-.6,1.2-.9,2.1-.4,1.1-.4,2.5.8,2.5s1.3-2.2.6-3.6v-.2c.6.7,1.5,1.9,1.9,2.3"/>
  <path class="st0" d="M9.7,16.1c0,1.6,2.2.9,2.5.6-.6-.7-1.2-1.5-1.6-2.7-.5.5-.9,1.3-.9,2"/>
  <path class="st0" d="M4.5,25.1c0,.3.2.5.4.5.7,0,1.1-1.7,1.1-2.7l.3-.2c0,.6.5,1,1,1s1.2-.5,1.2-1.3-.2-.7-.6-.6c-.5,0-1.2.5-1.4,0,0-.6.1-1.3.4-2,.3-.3.7-.6,1.1-1.1,1.1-1.5,1.2-2.7,1.1-3.5-1.3,1.4-3.3,4.5-3.7,5.4.2,0,.6-.2,1-.4-.2.6-.3,1.2-.3,1.8-.3.7-1.5,1.6-1.5,3.1"/>
  <path class="st0" d="M29.9,14.6c0,.6.5,1,1.4,1s1.7-.4,2.1-.7v.2c-.7.5-1.5,1.3-1.5,2.1s.6,1.1,1,1.1c1.9,0,.9-2.5,1.5-3.6.3-.2,1.5-.7,1.8-.8v.2c-.7.6-1.1,1.2-1.1,1.9s.6,1.2,1.1,1.2c1.8,0,.8-2.7,1.4-3.6.7-.3,1.6-.5,2.2-.6v.2c-1,.5-1.5,1.1-1.5,2s.5,1.1,1.2,1.1,1.3-1.2,1.5-2.2c.2-.8.2-1.2.5-1.4.5,0,2-.3,2.6-.4,0,0,0,.2,0,.2-1.3.4-2.2,1.2-2.2,2.3s.5,1.3,1.5,1.3c2.1,0,1.4-3,2.7-3.9h.6c.5,1.2,1.6,2.7,4,3.5,3,1,5.2.6,6.3-.7-4.5-2.4-9.4-3.5-10.6-3.7,0,.1,0,.2,0,.3-.2,0-.4,0-.6,0-.9-.3-1.3-3.1-3.5-3.1s-1.3.5-1.3,1.3,1.1,1.7,3,1.7v.2c-.8,0-2,.2-2.7.3-1.3-.3-2-2.5-3.6-2.4-.7,0-1.3.5-1.3,1.3,0,1.2,1.4,1.5,3.1,1.4v.2c-.7.2-1.7.4-2.4.7-1.1-.2-1.7-1.8-3.1-1.8s-1.2.5-1.2,1.1c0,1.1,1.3,1.4,3.1.9v.2c-.6.3-1.6.7-1.8.8-.5.1-1.1,0-1.5-.3-.6-.3-1-.6-1.6-.6s-1.1.4-1.1,1"/>
  <path class="st0" d="M54.2,60.2c-4.1,6.7-12.4,9.6-19.3,9.6s-14.8-2.2-20.7-7.1l-.2.2c5.8,5,12.9,7.3,20.9,7.3s15.8-3.1,19.9-9.8c0,0-.6-.3-.6-.3Z"/>
  <path class="st0" d="M57,60.7c-2,1.5-3.1,2.9-3.3,3.7,3.3-1.3,7.1-4.2,9.6-6.8,0,0-1.5-.6-6.3,3.1"/>
  <path class="st0" d="M62.9,44c1.2,0,2.8,0,3.8,0,0-1.3-.7-2-1.4-2-1.1,0-2.1,1-2.5,2"/>
  <path class="st0" d="M1.9,37.8h-.3c.4,7,3.4,12.1,7,16.4l.3-.4c-3.5-4-6.5-9.2-7-16"/>
  <path class="st0" d="M10,58.7c1.2,1.6,2.3,2.4,3.6,2.8,0,0-3-3.1-4.9-7-.2.8.1,2.6,1.3,4.1"/>
  <path class="st0" d="M67.1,41.8c0-2.2-.7-4.5-1.3-5.6-.8.8-1,1.7-1,2.6,0,1.4.8,2.8,2.3,3"/>
  <path class="st0" d="M7.5,58.8c1.2-1.1.3-4.9-1-6.4,0,2.2.1,4.5,1,6.4"/>
  <path class="st0" d="M68.6,44c.8-1.4,1.5-3.3,1.8-5.1-.9.8-2,3.3-1.8,5.1"/>
  <path class="st0" d="M71.1,39.3c-.3,1.9-.8,3.3-1.8,5,.4-.2,1.3-.5,1.8-2.2.4-1.1.2-2.4,0-2.8"/>
  <path class="st0" d="M67.4,36.1c0-.5-.2-.9-.3-1.5,0-.2.3-.5.5-.8,1-1.4,1.1-3.2.1-3.2s-.9,1.7-.8,2.8h-.2c-.2-.6-.7-1.9-.9-2.3.1-.4.3-.5.6-1.2.6-1.3.6-2.7-.2-2.7s-1,1.8-.6,3h-.2c-.4-.9-1-1.6-1.2-2-.1-.7.5-1.5.5-2.5s-.3-1.1-.8-1.1c-1.1,0-1,1.8-.2,3.3h-.1c-.4-.4-1.1-.8-1.8-.8s-1.1.4-1.1,1,.3,1,1.2,1,1.3-.6,2-.4c.5.6.8,1.2,1.2,2l-.2.2c-.5-.5-1.1-.9-1.9-.9s-1.1.5-1.1,1.1c0,1,1.1,1.1,1.9.8.5-.2,1.3-.4,1.6-.2.3.4.7,1.5,1,2.3h-.2c-.6-.6-1.4-.8-2-.8s-1.4.5-1.4,1.2.8,1.2,1.5,1.2c1.2,0,2-.7,2.3-.5.1.4.2.4.3,1.3-.1,0-.2,0-.3,0,.6,1.2,1.2,3.3,1.2,5.7.5-.9.9-1.9.9-3s-.6-2.3-1.4-2.6"/>
  <path class="st0" d="M54,65.1c.7.2,1.9,0,3.1-.4,5-1.7,6.7-5.7,6.7-6.5-2,2.4-6.7,5.7-9.8,6.9"/>
  <path class="st0" d="M63.4,55.9h.4c.2-.3,4-5.6,4-13.8l-.5.2c.1,5.2-1.9,10.4-3.9,13.6"/>
  <path class="st0" d="M64.6,47c1.3,0,1.9-1.2,2.1-2.2-1.2,0-2.6.1-3.8,0,0,1.1.7,2.1,1.7,2.1"/>
  <path class="st0" d="M16.5,6.7c3.1-1.7,5.9-2.6,8-2.9,0-1.1-5,0-8,2.9"/>
  <path class="st0" d="M22.7,7.4c4.7-3.7,10.4-5.3,16.3-5.1v-.3c-5.2,0-10.9.7-16.9,5.2,0,0,.6.3.6.3Z"/>
  <path class="st0" d="M44.4,4.4c2.4,0,6.3.7,9.2,2.7l.2-.2c-2.4-1.7-6.8-2.8-9.7-2.8,0,0,.3.4.3.4Z"/>
  <path class="st0" d="M24.3,4.6s-3.9.5-8,2.9c1.1.5,5.4-.8,8-2.9"/>
  <path class="st0" d="M41.4,2.4c1.9.9,3.6,1,4.2,1-1.2-.8-2.7-1.6-4.4-2.3-.8,0-.9.7.2,1.3"/>
  <path class="st0" d="M14.2,14.8c1.6-2.4,4.6-5.5,7.3-7.4-.7,0-3.2.5-5.7,3.1-2.1,2.2-1.9,3.8-1.6,4.4"/>
  <path class="st0" d="M45.1,1.6c-.9-.4-2.3-.7-2.8-.7,1.4.5,2.9,1.3,4.3,2.3,0-.3.3-.8-1.5-1.6"/>
  <path class="st0" d="M5.9,52.4c-1.7,2.5-.3,5.6.8,6.4-.9-2.2-1-4.7-.8-6.4"/>
  <path class="st0" d="M.3,36.5c.2-2.4.6-4.7,1.3-7.2-1.8,1.8-1.9,5.3-1.3,7.2"/>
  <path class="st0" d="M4.2,39.5c-.3-1.3-1-4.2-1.1-7.2-.5,1.2-.8,4,0,5.9.4.9.8,1.3,1.2,1.4"/>
  <path class="st0" d="M2.2,29.7c-.7,2-1.1,5-1.3,7.1,1.3-.3,1.7-4.4,1.3-7.1"/>
  <path class="st0" d="M15.4,8.9l-.3-.2c-2.1,1.2-4.9,3.9-6.3,5.8h.5c1-1.5,3.6-4.1,6-5.7"/>
  <path class="st0" d="M6.1,16.4c-1.1,1.3-1.5,2.8-1.4,4,.3-.8,2.1-3.8,3.7-5.4-.5.1-1.4.4-2.3,1.5"/>
  <path class="st0" d="M3.5,31.7c-.3-2.7,0-6.6,1.5-10h-.3c-1.3,2.7-1.9,6.6-1.6,10.2,0,0,.4-.2.4-.2Z"/>
</svg>